# xmcd
#
# Track frame offsets:
#	150
#	13694
#	32791
#	49690
#	70391
#
# Disc length: 1413
#
# Revision: 1
# Processed by: cddbd v1.5.1PL0 Copyright (c) Steve Scherf et al.
# Submitted via: EasyCDDAExtractor 4.5.2.1
# Normalized: r0:TDELIM( - )
#
DISCID=3d058305
DTITLE=A Tribute To Heros [CD2]
DYEAR=1900
DGENRE=
TTITLE0=Sting - Fragile
TTITLE1=Eddie Vedder and Neil Young - Long Road
TTITLE2=Celine Dion - God Bless America
TTITLE3=Paul Simon - Bridge Over Troubled Water
TTITLE4=Willie Nelson and All - America The Beautiful
EXTD=
EXTT0=
EXTT1=
EXTT2=
EXTT3=
EXTT4=
PLAYORDER=
